<?xml version="1.0" encoding="UTF-8" standalone="no"?>
<!-- Created with Inkscape (http://www.inkscape.org/) -->

<svg
   width="113.38164mm"
   height="72.904633mm"
   viewBox="0 0 113.38164 72.904633"
   version="1.1"
   id="svg1"
   inkscape:version="1.3 (0e150ed, 2023-07-21)"
   sodipodi:docname="logo-text.svg"
   inkscape:export-filename="logo-text.png"
   inkscape:export-xdpi="80"
   inkscape:export-ydpi="80"
   xmlns:inkscape="http://www.inkscape.org/namespaces/inkscape"
   xmlns:sodipodi="http://sodipodi.sourceforge.net/DTD/sodipodi-0.dtd"
   xmlns="http://www.w3.org/2000/svg"
   xmlns:svg="http://www.w3.org/2000/svg">
  <sodipodi:namedview
     id="namedview1"
     pagecolor="#ffffff"
     bordercolor="#000000"
     borderopacity="0.25"
     inkscape:showpageshadow="2"
     inkscape:pageopacity="0.0"
     inkscape:pagecheckerboard="0"
     inkscape:deskcolor="#d1d1d1"
     inkscape:document-units="mm"
     inkscape:zoom="1.6360106"
     inkscape:cx="242.96908"
     inkscape:cy="191.31905"
     inkscape:window-width="1680"
     inkscape:window-height="1099"
     inkscape:window-x="133"
     inkscape:window-y="25"
     inkscape:window-maximized="0"
     inkscape:current-layer="layer1" />
  <defs
     id="defs1">
    <inkscape:path-effect
       effect="taper_stroke"
       id="path-effect3"
       is_visible="true"
       lpeversion="1"
       stroke_width="5"
       subpath="1"
       attach_start="2"
       end_offset="4"
       start_smoothing="0.5"
       end_smoothing="0.5"
       jointype="extrapolated"
       start_shape="center"
       end_shape="center"
       miter_limit="100" />
    <inkscape:path-effect
       effect="taper_stroke"
       id="path-effect2"
       is_visible="true"
       lpeversion="1"
       stroke_width="5"
       subpath="1"
       attach_start="2"
       end_offset="4"
       start_smoothing="0.5"
       end_smoothing="0.5"
       jointype="extrapolated"
       start_shape="center"
       end_shape="center"
       miter_limit="100" />
  </defs>
  <g
     inkscape:label="Layer 1"
     inkscape:groupmode="layer"
     id="layer1"
     transform="translate(-63.406903,-110.65365)">
    <text
       xml:space="preserve"
       style="font-style:normal;font-variant:normal;font-weight:normal;font-stretch:normal;font-size:50.8px;font-family:Papyrus;-inkscape-font-specification:'Papyrus, Normal';font-variant-ligatures:normal;font-variant-caps:normal;font-variant-numeric:normal;font-variant-east-asian:normal;fill:#000000;stroke-width:0.264583"
       x="91.336815"
       y="130.1705"
       id="text3"><tspan
         sodipodi:role="line"
         id="tspan3"
         style="stroke-width:0.264583"
         x="91.336815"
         y="130.1705" /></text>
    <text
       xml:space="preserve"
       style="font-style:normal;font-variant:normal;font-weight:normal;font-stretch:normal;font-size:50.8px;font-family:Papyrus;-inkscape-font-specification:'Papyrus, Normal';font-variant-ligatures:normal;font-variant-caps:normal;font-variant-numeric:normal;font-variant-east-asian:normal;fill:#f37f1a;fill-opacity:1;stroke:#0b0b0b;stroke-width:0.264583;stroke-opacity:0.996078"
       x="134.16048"
       y="165.18425"
       id="text2"><tspan
         sodipodi:role="line"
         id="tspan2"
         style="font-style:normal;font-variant:normal;font-weight:normal;font-stretch:normal;font-size:70.5556px;font-family:Papyrus;-inkscape-font-specification:'Papyrus, Normal';font-variant-ligatures:normal;font-variant-caps:normal;font-variant-numeric:normal;font-variant-east-asian:normal;fill:#f37f1a;fill-opacity:1;stroke:#0b0b0b;stroke-width:0.264583;stroke-opacity:0.996078"
         x="134.16048"
         y="165.18425">]</tspan></text>
    <text
       xml:space="preserve"
       style="font-size:3.175px;fill:#e0e0e0;fill-opacity:1;stroke:#000000;stroke-width:0.365;stroke-dasharray:0.1825, 0.1825;stroke-dashoffset:0;stroke-opacity:1"
       x="133.83522"
       y="183.29675"
       id="text12"><tspan
         sodipodi:role="line"
         id="tspan12"
         style="font-style:normal;font-variant:normal;font-weight:900;font-stretch:normal;font-size:19.7556px;font-family:Optima;-inkscape-font-specification:'Optima, Heavy';font-variant-ligatures:normal;font-variant-caps:normal;font-variant-numeric:normal;font-variant-east-asian:normal;fill:#e0e0e0;fill-opacity:1;stroke:#000000;stroke-width:0.365;stroke-dasharray:0.1825, 0.1825;stroke-dashoffset:0;stroke-opacity:1"
         x="133.83522"
         y="183.29675">sher</tspan></text>
    <path
       sodipodi:type="spiral"
       style="fill:#f37f1a;fill-opacity:1;fill-rule:nonzero;stroke:#000000;stroke-width:0.2;stroke-linecap:round;stroke-dasharray:none;stroke-dashoffset:0;stroke-opacity:0.996078"
       id="path3"
       sodipodi:cx="95.375526"
       sodipodi:cy="125.51046"
       sodipodi:expansion="1"
       sodipodi:revolution="3.2110558"
       sodipodi:radius="35.319813"
       sodipodi:argument="-18.010876"
       sodipodi:t0="0"
       d="m 89.54284,120.15514 c -0.955371,1.6472 -1.067613,3.5137 -0.534758,5.12066 0.606599,2.00936 2.38266,3.18467 3.961922,3.36569 1.310598,0.0875 2.116867,-0.53058 2.532687,-1.04547 0.319493,-0.30264 0.511242,-0.76201 0.531306,-1.14075 -0.0444,-0.90185 -0.658471,-0.94481 -0.658471,-0.94481 0,0 0.245452,0.61031 -0.102319,0.74093 -0.124002,0.1058 -0.289889,0.0816 -0.541545,0.12935 -0.439035,0.028 -1.007926,-0.0374 -1.041093,-0.32505 -0.421557,-0.37654 -0.513039,-1.15611 -0.412046,-1.64437 0.07176,-0.63337 0.311547,-1.29103 0.577102,-1.72638 0,0 1.3e-5,-2e-5 1.3e-5,-2e-5 1.183786,-2.01804 4.23343,-2.08879 6.183602,-0.66816 3.15052,2.29504 3.19802,7.07435 0.74621,10.10103 -3.413614,4.21399 -9.933761,4.20253 -14.00268,0.69074 -5.250804,-4.53185 -5.166349,-12.80031 -0.578052,-17.89681 5.649187,-6.27489 15.670832,-6.1104 21.787082,-0.43552 7.29199,6.76579 7.04345,18.54393 0.27542,25.6752 -7.88184,8.30486 -21.418796,7.96973 -29.561997,0.10409 -9.3e-5,-9e-5 -1.86e-4,-1.8e-4 -2.79e-4,-2.7e-4 -4.413161,-4.2256 -6.88287,-10.48532 -6.854019,-16.63278 0.02711,-6.25021 2.543206,-12.50879 6.817841,-16.92397 4.831928,-5.0479 11.899735,-7.775368 18.734692,-7.76363 7.215062,0.01044 14.237152,2.93088 19.157302,7.68054 5.86055,5.61254 8.77045,13.62893 8.77697,21.07263 0.009,8.57541 -3.5735,16.37282 -8.63503,21.63454 0,0 -10e-6,0 -10e-6,0 -5.77615,6.02346 -13.21694,8.85521 -19.412358,9.67339 -14.335823,1.89255 -21.682209,-4.21538 -21.682209,-4.21538 0,0 6.972988,6.59486 21.801926,5.31711 6.424911,-0.5534 14.330031,-3.1439 20.753421,-9.31353 0,0 0,0 0,-1e-5 5.62801,-5.42191 9.83671,-13.63818 10.14709,-23.04626 0.26899,-8.20312 -2.64165,-17.15117 -9.12498,-23.77118 -5.50103,-5.577696 -13.38771,-9.116353 -21.725148,-9.312591 -7.975002,-0.185436 -16.202826,2.817605 -22.140747,8.763541 -5.215533,5.27239 -8.288164,12.59791 -8.387258,20.15988 -0.09565,7.48288 2.846775,14.97028 8.29874,20.27393 1.14e-4,1.1e-4 2.28e-4,2.2e-4 3.42e-4,3.3e-4 10.056024,9.71327 26.809281,10.12353 36.662401,-0.25842 8.59304,-9.05423 8.90399,-24.05589 -0.5013,-32.78246 -8.0524,-7.47133 -21.308236,-7.68147 -28.903836,0.75542 -6.347559,7.05061 -6.454599,18.57007 1.027108,25.02737 6.049114,5.22086 15.849207,5.22089 21.154758,-1.32864 4.08997,-5.04893 3.97512,-13.16473 -1.68739,-17.28967 -4.038424,-2.94185 -10.590261,-2.67897 -13.440355,2.17966 0,0 -5.5e-5,1e-4 -5.5e-5,1e-4 z"
       transform="matrix(0.81281168,0.21779223,-0.21779223,0.81281168,72.253001,21.115749)"
       inkscape:path-effect="#path-effect3" />
    <path
       sodipodi:type="spiral"
       style="fill:#51008d;fill-opacity:1;fill-rule:nonzero;stroke:#ffffff;stroke-width:0.3;stroke-linecap:round;stroke-dasharray:none;stroke-dashoffset:0;stroke-opacity:1"
       id="path4"
       sodipodi:cx="95.375526"
       sodipodi:cy="125.51046"
       sodipodi:expansion="1"
       sodipodi:revolution="3.2213776"
       sodipodi:radius="35.433308"
       sodipodi:argument="-18.010876"
       sodipodi:t0="0"
       d="m 89.542844,120.15514 c -0.95537,1.64721 -1.067612,3.5137 -0.534757,5.12066 0.606599,2.00936 2.382658,3.18467 3.961919,3.36568 1.310597,0.0875 2.116866,-0.53057 2.532686,-1.04546 0.319492,-0.30264 0.511241,-0.76201 0.531305,-1.14075 -0.0444,-0.90185 -0.658471,-0.94481 -0.658471,-0.94481 0,0 0.245451,0.61031 -0.102319,0.74092 -0.124002,0.10581 -0.289889,0.0816 -0.541545,0.12936 -0.439035,0.028 -1.007924,-0.0374 -1.041091,-0.32505 -0.421555,-0.37654 -0.513036,-1.15611 -0.412043,-1.64437 0.07176,-0.63337 0.311547,-1.29103 0.577101,-1.72638 0,0 1.3e-5,-2e-5 1.3e-5,-2e-5 1.183784,-2.01803 4.233422,-2.08878 6.183598,-0.66815 3.15051,2.29504 3.19801,7.07433 0.7462,10.10101 -3.413607,4.21398 -9.933746,4.20253 -14.002658,0.69074 -5.250797,-4.53185 -5.166342,-12.80029 -0.578051,-17.89678 5.649179,-6.27488 15.670819,-6.1104 21.787049,-0.43552 7.29198,6.76577 7.04344,18.5439 0.27542,25.67516 -7.88182,8.30485 -21.418765,7.96972 -29.561956,0.10409 -9.3e-5,-9e-5 -1.86e-4,-1.8e-4 -2.79e-4,-2.7e-4 -4.412874,-4.22533 -6.88251,-10.48502 -6.853027,-16.63275 0.02774,-6.24869 2.54364,-12.50661 6.819491,-16.92136 4.829676,-5.04374 11.895428,-7.771339 18.73191,-7.757834 7.206371,0.01227 14.226731,2.929494 19.147101,7.682534 5.84559,5.60159 8.76048,13.60888 8.76417,21.06184 0.006,8.53716 -3.5544,16.33427 -8.63546,21.61135 0,0 -1e-5,0 -1e-5,0 -6.06231,6.31785 -13.98246,9.13331 -20.511202,9.76934 -15.134755,1.474 -22.484697,-5.54065 -22.484697,-5.54065 0,0 6.926678,7.50678 22.569969,6.68395 6.76807,-0.35592 15.18092,-2.91344 21.93376,-9.40397 -1e-5,0 0,0 0,0 5.6573,-5.45534 9.8406,-13.6888 10.14664,-23.06939 0.26671,-8.22597 -2.66034,-17.17164 -9.13776,-23.78194 -5.51049,-5.583882 -13.40207,-9.116328 -21.735315,-9.310574 -7.981555,-0.18377 -16.208631,2.824671 -22.143472,8.769334 -5.216628,5.27516 -8.287158,12.60207 -8.38559,20.16243 -0.09503,7.48368 2.848214,14.97072 8.299715,20.27392 1.14e-4,1.1e-4 2.28e-4,2.2e-4 3.42e-4,3.3e-4 10.056014,9.71326 26.80925,10.12352 36.66237,-0.25842 8.59303,-9.05422 8.90397,-24.05586 -0.5013,-32.78243 -8.0524,-7.47132 -21.308221,-7.68146 -28.903814,0.75542 -6.347553,7.0506 -6.454593,18.57006 1.027107,25.02735 6.049109,5.22085 15.849192,5.22089 21.154737,-1.32864 4.08997,-5.04892 3.97512,-13.16472 -1.68739,-17.28966 -4.038417,-2.94185 -10.590249,-2.67896 -13.440341,2.17967 0,0 -5.5e-5,9e-5 -5.5e-5,9e-5 z"
       transform="matrix(-0.81281168,-0.21779223,0.21779223,-0.81281168,172.71458,264.30903)"
       inkscape:path-effect="#path-effect2" />
    <text
       xml:space="preserve"
       style="font-style:normal;font-variant:normal;font-weight:900;font-stretch:normal;font-size:19.7556px;font-family:Optima;-inkscape-font-specification:'Optima, Heavy';font-variant-ligatures:normal;font-variant-caps:normal;font-variant-numeric:normal;font-variant-east-asian:normal;fill:#e0e0e0;fill-opacity:1;stroke:#000000;stroke-width:0.365001;stroke-dasharray:0.1825, 0.1825;stroke-dashoffset:0;stroke-opacity:1"
       x="103.25536"
       y="183.35602"
       id="text14"><tspan
         sodipodi:role="line"
         id="tspan14"
         style="stroke-width:0.365"
         x="103.25536"
         y="183.35602">Me</tspan></text>
    <text
       xml:space="preserve"
       style="font-size:3.175px;fill:#51008d;fill-opacity:1;stroke:#ddeeff;stroke-width:0.265;stroke-dasharray:none;stroke-opacity:1"
       x="78.676361"
       y="165.25314"
       id="text1"><tspan
         sodipodi:role="line"
         id="tspan1"
         style="font-style:normal;font-variant:normal;font-weight:normal;font-stretch:normal;font-size:70.5556px;font-family:Papyrus;-inkscape-font-specification:'Papyrus, Normal';font-variant-ligatures:normal;font-variant-caps:normal;font-variant-numeric:normal;font-variant-east-asian:normal;fill:#51008d;fill-opacity:1;stroke:#ddeeff;stroke-width:0.265;stroke-dasharray:none;stroke-opacity:1"
         x="78.676361"
         y="165.25314">[</tspan></text>
    <text
       xml:space="preserve"
       style="font-style:normal;font-variant:normal;font-weight:900;font-stretch:normal;font-size:19.7556px;font-family:Optima;-inkscape-font-specification:'Optima, Heavy';font-variant-ligatures:normal;font-variant-caps:normal;font-variant-numeric:normal;font-variant-east-asian:normal;fill:#e0e0e0;fill-opacity:1;stroke:#000000;stroke-width:0.365001;stroke-dasharray:0.1825, 0.1825;stroke-dashoffset:0;stroke-opacity:1"
       x="62.897957"
       y="183.23749"
       id="text13"><tspan
         sodipodi:role="line"
         id="tspan13"
         style="stroke-width:0.365"
         x="62.897957"
         y="183.23749">Geo</tspan></text>
  </g>
</svg>
