<?xml version="1.0" encoding="UTF-8" standalone="no"?>
<svg
   width="348.65369pt"
   height="149.91925pt"
   viewBox="0 0 348.65367 149.91926"
   version="1.1"
   id="svg100"
   sodipodi:docname="vd.svg"
   inkscape:version="1.3 (0e150ed, 2023-07-21)"
   inkscape:export-filename="vd.png"
   inkscape:export-xdpi="300"
   inkscape:export-ydpi="300"
   xmlns:inkscape="http://www.inkscape.org/namespaces/inkscape"
   xmlns:sodipodi="http://sodipodi.sourceforge.net/DTD/sodipodi-0.dtd"
   xmlns="http://www.w3.org/2000/svg"
   xmlns:svg="http://www.w3.org/2000/svg"
   xmlns:rdf="http://www.w3.org/1999/02/22-rdf-syntax-ns#"
   xmlns:cc="http://creativecommons.org/ns#"
   xmlns:dc="http://purl.org/dc/elements/1.1/">
  <sodipodi:namedview
     id="namedview100"
     pagecolor="#ffffff"
     bordercolor="#000000"
     borderopacity="0.25"
     inkscape:showpageshadow="2"
     inkscape:pageopacity="0.0"
     inkscape:pagecheckerboard="0"
     inkscape:deskcolor="#d1d1d1"
     inkscape:document-units="pt"
     inkscape:zoom="2.4001481"
     inkscape:cx="216.86162"
     inkscape:cy="74.16209"
     inkscape:window-width="1864"
     inkscape:window-height="1099"
     inkscape:window-x="67"
     inkscape:window-y="25"
     inkscape:window-maximized="0"
     inkscape:current-layer="g109"
     inkscape:export-bgcolor="#ffffffff" />
  <metadata
     id="metadata1">
    <rdf:RDF>
      <cc:Work>
        <dc:type
           rdf:resource="http://purl.org/dc/dcmitype/StillImage" />
        <dc:date>2023-10-03T19:19:59.233888</dc:date>
        <dc:format>image/svg+xml</dc:format>
        <dc:creator>
          <cc:Agent>
            <dc:title>Matplotlib v3.8.0, https://matplotlib.org/</dc:title>
          </cc:Agent>
        </dc:creator>
      </cc:Work>
    </rdf:RDF>
  </metadata>
  <defs
     id="defs1">
    <style
       type="text/css"
       id="style1">*{stroke-linejoin: round; stroke-linecap: butt}</style>
    <clipPath
       id="p866bf232cb-4">
      <rect
         x="7.1999998"
         y="7.1999998"
         width="334.79999"
         height="284.57767"
         id="rect100-6" />
    </clipPath>
  </defs>
  <g
     id="figure_1"
     transform="translate(-10.168181,-8.6561931)">
    <g
       id="axes_1"
       transform="translate(-12,4.5)">
      <g
         id="PatchCollection_1"
         transform="matrix(0.50830968,0,0,0.50830968,10.89988,9.7774336)">
        <path
           d="M 22.418182,147.77476 136.55513,164.70537 22.418182,159.09818 v -11.32342"
           clip-path="url(#p866bf232cb)"
           style="fill:none;stroke:#000000;stroke-width:0.5"
           id="path2" />
        <path
           d="m 22.418182,159.09818 114.136948,5.60719 v 0 l -114.136948,5.60719 v -11.21438"
           clip-path="url(#p866bf232cb)"
           style="fill:none;stroke:#000000;stroke-width:0.5"
           id="path3" />
        <path
           d="m 22.418182,136.11555 114.136948,28.58982 v 0 0 0 L 22.418182,147.77476 v -11.65921"
           clip-path="url(#p866bf232cb)"
           style="fill:none;stroke:#000000;stroke-width:0.5"
           id="path4" />
        <path
           d="m 22.418182,110.72262 114.136948,53.98275 v 0 0 0 0 L 22.418182,123.86652 v -13.1439"
           clip-path="url(#p866bf232cb)"
           style="fill:none;stroke:#000000;stroke-width:0.5"
           id="path5" />
        <path
           d="m 22.418182,170.31256 114.136948,-5.60719 v 0 0 0 0 0 L 22.418182,181.63599 v -11.32343"
           clip-path="url(#p866bf232cb)"
           style="fill:none;stroke:#000000;stroke-width:0.5"
           id="path6" />
        <path
           d="M 22.418182,181.63599 136.55513,164.70537 22.418182,193.29519 v -11.6592"
           clip-path="url(#p866bf232cb)"
           style="fill:none;stroke:#000000;stroke-width:0.5"
           id="path7" />
        <path
           d="M 22.418182,123.86652 136.55513,164.70537 22.418182,136.11555 v -12.24903"
           clip-path="url(#p866bf232cb)"
           style="fill:none;stroke:#000000;stroke-width:0.5"
           id="path8" />
        <path
           d="M 22.418182,193.29519 136.55513,164.70537 v 0 0 0 0 0 0 L 22.418182,205.54423 v -12.24904"
           clip-path="url(#p866bf232cb)"
           style="fill:none;stroke:#000000;stroke-width:0.5"
           id="path9" />
        <path
           d="M 22.418182,61.257671 136.55513,164.70537 v 0 0 L 22.418182,80.055641 v -18.79797"
           clip-path="url(#p866bf232cb)"
           style="fill:none;stroke:#000000;stroke-width:0.5"
           id="path10" />
        <path
           d="M 22.418182,80.055641 136.55513,164.70537 v 0 L 22.418182,96.294318 V 80.055641"
           clip-path="url(#p866bf232cb)"
           style="fill:none;stroke:#000000;stroke-width:0.5"
           id="path11" />
        <path
           d="M 22.418182,205.54423 136.55513,164.70537 22.418182,218.68813 v -13.1439"
           clip-path="url(#p866bf232cb)"
           style="fill:none;stroke:#000000;stroke-width:0.5"
           id="path12" />
        <path
           d="M 22.418182,218.68813 136.55513,164.70537 v 0 L 22.418182,233.11643 v -14.4283"
           clip-path="url(#p866bf232cb)"
           style="fill:none;stroke:#000000;stroke-width:0.5"
           id="path13" />
        <path
           d="M 22.418182,96.294318 136.55513,164.70537 22.418182,110.72262 V 96.294318"
           clip-path="url(#p866bf232cb)"
           style="fill:none;stroke:#000000;stroke-width:0.5"
           id="path14" />
        <path
           d="M 22.418182,233.11643 136.55513,164.70537 v 0 0 0 L 22.418182,249.35511 v -16.23868"
           clip-path="url(#p866bf232cb)"
           style="fill:none;stroke:#000000;stroke-width:0.5"
           id="path15" />
        <path
           d="m 22.418182,40.422498 118.736068,118.736072 -0.58466,1.53235 -4.01446,4.01445 v 0 0 0 L 22.418182,61.257671 V 40.422498"
           clip-path="url(#p866bf232cb)"
           style="fill:none;stroke:#000000;stroke-width:0.5"
           id="path16" />
        <path
           d="m 33.10743,278.84233 103.4477,-114.13696 v 0 0 0 0 0 0 L 51.905401,278.84233 H 33.10743"
           clip-path="url(#p866bf232cb)"
           style="fill:none;stroke:#000000;stroke-width:0.5"
           id="path17" />
        <path
           d="M 22.418182,278.84233 V 268.15308 L 136.55513,164.70537 v 0 L 33.10743,278.84233 H 22.418182"
           clip-path="url(#p866bf232cb)"
           style="fill:none;stroke:#000000;stroke-width:0.5"
           id="path18" />
        <path
           d="M 22.418182,249.35511 136.55513,164.70537 22.418182,268.15308 v -18.79797"
           clip-path="url(#p866bf232cb)"
           style="fill:none;stroke:#000000;stroke-width:0.5"
           id="path19" />
        <path
           d="m 107.96532,278.84233 28.58981,-114.13696 v 0 0 0 0 l -16.93061,114.13696 h -11.6592"
           clip-path="url(#p866bf232cb)"
           style="fill:none;stroke:#000000;stroke-width:0.5"
           id="path20" />
        <path
           d="m 142.16232,278.84233 -5.60719,-114.13696 v 0 0 0 l 16.93062,114.13696 h -11.32343"
           clip-path="url(#p866bf232cb)"
           style="fill:none;stroke:#000000;stroke-width:0.5"
           id="path21" />
        <path
           d="M 51.905401,278.84233 136.55513,164.70537 v 0 L 68.144077,278.84233 H 51.905401"
           clip-path="url(#p866bf232cb)"
           style="fill:none;stroke:#000000;stroke-width:0.5"
           id="path22" />
        <path
           d="M 204.96619,278.84233 136.55513,164.70537 v 0 0 0 0 0 0 0 l 81.50531,109.89719 1.79005,4.23977 h -14.8843"
           clip-path="url(#p866bf232cb)"
           style="fill:none;stroke:#000000;stroke-width:0.5"
           id="path23" />
        <path
           d="M 68.144077,278.84233 136.55513,164.70537 82.572375,278.84233 H 68.144077"
           clip-path="url(#p866bf232cb)"
           style="fill:none;stroke:#000000;stroke-width:0.5"
           id="path24" />
        <path
           d="M 82.572375,278.84233 136.55513,164.70537 v 0 0 0 L 95.716279,278.84233 H 82.572375"
           clip-path="url(#p866bf232cb)"
           style="fill:none;stroke:#000000;stroke-width:0.5"
           id="path25" />
        <path
           d="M 95.716279,278.84233 136.55513,164.70537 107.96532,278.84233 H 95.716279"
           clip-path="url(#p866bf232cb)"
           style="fill:none;stroke:#000000;stroke-width:0.5"
           id="path26" />
        <path
           d="m 119.62452,278.84233 16.93061,-114.13696 -5.60719,114.13696 h -11.32342"
           clip-path="url(#p866bf232cb)"
           style="fill:none;stroke:#000000;stroke-width:0.5"
           id="path27" />
        <path
           d="m 130.94794,278.84233 5.60719,-114.13696 v 0 l 5.60719,114.13696 h -11.21438"
           clip-path="url(#p866bf232cb)"
           style="fill:none;stroke:#000000;stroke-width:0.5"
           id="path28" />
        <path
           d="m 22.418182,20.135349 h 1.779691 L 146.70106,154.55945 v 0 l 0.0929,0.15025 -5.63967,4.44887 L 22.418182,40.422498 V 20.135349"
           clip-path="url(#p866bf232cb)"
           style="fill:none;stroke:#000000;stroke-width:0.5"
           id="path29" />
        <path
           d="M 153.48575,278.84233 136.55513,164.70537 v 0 0 l 28.58982,114.13696 h -11.6592"
           clip-path="url(#p866bf232cb)"
           style="fill:none;stroke:#000000;stroke-width:0.5"
           id="path30" />
        <path
           d="M 177.39399,278.84233 136.55513,164.70537 v 0 0 l 53.98276,114.13696 h -13.1439"
           clip-path="url(#p866bf232cb)"
           style="fill:none;stroke:#000000;stroke-width:0.5"
           id="path31" />
        <path
           d="M 45.293053,20.135349 146.70106,154.55945 24.197873,20.135349 h 21.09518"
           clip-path="url(#p866bf232cb)"
           style="fill:none;stroke:#000000;stroke-width:0.5"
           id="path32" />
        <path
           d="M 63.622395,20.135349 146.70106,154.55945 45.293053,20.135349 h 18.329342"
           clip-path="url(#p866bf232cb)"
           style="fill:none;stroke:#000000;stroke-width:0.5"
           id="path33" />
        <path
           d="M 165.14495,278.84233 136.55513,164.70537 177.39399,278.84233 H 165.14495"
           clip-path="url(#p866bf232cb)"
           style="fill:none;stroke:#000000;stroke-width:0.5"
           id="path34" />
        <path
           d="m 79.9593,20.135349 66.74176,134.424101 v 0 0 L 63.622395,20.135349 H 79.9593"
           clip-path="url(#p866bf232cb)"
           style="fill:none;stroke:#000000;stroke-width:0.5"
           id="path35" />
        <path
           d="m 146.70106,154.55945 v 0 l -42.72244,-110.766965 25.43818,50.811024 8.92978,18.376091 4.92908,10.67262 9.42706,28.2812 -5.9088,2.77628 -0.0929,-0.15025"
           clip-path="url(#p866bf232cb)"
           style="fill:none;stroke:#000000;stroke-width:0.5"
           id="path36" />
        <path
           d="m 105.28861,20.135349 61.7043,124.278171 v 0 0 L 100.69357,37.138944 92.188516,20.135349 h 13.100094"
           clip-path="url(#p866bf232cb)"
           style="fill:none;stroke:#000000;stroke-width:0.5"
           id="path37" />
        <path
           d="m 92.188516,20.135349 8.505054,17.003595 3.28505,6.653541 L 146.70106,154.55945 79.9593,20.135349 h 12.229216"
           clip-path="url(#p866bf232cb)"
           style="fill:none;stroke:#000000;stroke-width:0.5"
           id="path38" />
        <path
           d="m 136.55513,164.70537 v 0 l 4.01446,-4.01445 27.31224,27.31224 19.57261,32.86095 -50.89931,-56.15874"
           clip-path="url(#p866bf232cb)"
           style="fill:none;stroke:#000000;stroke-width:0.5"
           id="path39" />
        <path
           d="M 220.0687,278.84233 197.43068,139.34056 v 0 l 38.32686,139.50177 H 220.0687"
           clip-path="url(#p866bf232cb)"
           style="fill:none;stroke:#000000;stroke-width:0.5"
           id="path40" />
        <path
           d="m 190.53789,278.84233 -53.98276,-114.13696 68.41106,114.13696 h -14.4283"
           clip-path="url(#p866bf232cb)"
           style="fill:none;stroke:#000000;stroke-width:0.5"
           id="path41" />
        <path
           d="m 138.34658,112.9796 -8.92978,-18.376091 37.57611,49.810011 v 0 0 L 138.34658,112.9796"
           clip-path="url(#p866bf232cb)"
           style="fill:none;stroke:#000000;stroke-width:0.5"
           id="path42" />
        <path
           d="m 152.70272,151.93342 -9.42706,-28.2812 22.18976,22.18977 -2.01799,2.21603 -1.62034,1.27822 -5.90881,2.77627 -3.21556,-0.17909"
           clip-path="url(#p866bf232cb)"
           style="fill:none;stroke:#000000;stroke-width:0.5"
           id="path43" />
        <path
           d="m 219.85049,278.84233 -1.79005,-4.23977 -3.74176,-8.98788 -7.26008,-25.21476 -5.1969,-18.50889 -4.43102,-82.55047 22.63802,139.50177 h -0.21821"
           clip-path="url(#p866bf232cb)"
           style="fill:none;stroke:#000000;stroke-width:0.5"
           id="path44" />
        <path
           d="m 214.31868,265.61468 3.74176,8.98788 -81.50531,-109.89719 50.89931,56.15874 5.44164,8.93459 21.4226,35.81598"
           clip-path="url(#p866bf232cb)"
           style="fill:none;stroke:#000000;stroke-width:0.5"
           id="path45" />
        <path
           d="m 214.31868,265.61468 -21.4226,-35.81598 -30.97614,-80.31221 45.13866,90.91343 7.26008,25.21476"
           clip-path="url(#p866bf232cb)"
           style="fill:none;stroke:#000000;stroke-width:0.5"
           id="path46" />
        <path
           d="m 140.56959,160.69092 0.58466,-1.53235 5.63967,-4.44887 5.9088,-2.77628 3.21556,0.17909 11.96355,35.89065 -27.31224,-27.31224"
           clip-path="url(#p866bf232cb)"
           style="fill:none;stroke:#000000;stroke-width:0.5"
           id="path47" />
        <path
           d="m 192.89608,229.7987 -5.44164,-8.93459 -19.57261,-32.86095 -11.96355,-35.89065 5.90881,-2.77627 0.0928,0.15025 v 0 0 l 30.97614,80.31221"
           clip-path="url(#p866bf232cb)"
           style="fill:none;stroke:#000000;stroke-width:0.5"
           id="path48" />
        <path
           d="m 143.27566,123.65222 -4.92908,-10.67262 28.64633,31.43392 0.0928,0.15025 -1.62034,1.27822 -22.18976,-22.18977"
           clip-path="url(#p866bf232cb)"
           style="fill:none;stroke:#000000;stroke-width:0.5"
           id="path49" />
        <path
           d="m 161.91994,149.48649 v 0 0 l 35.65683,57.69395 4.28493,14.71059 5.1969,18.50889 -45.13866,-90.91343"
           clip-path="url(#p866bf232cb)"
           style="fill:none;stroke:#000000;stroke-width:0.5"
           id="path50" />
        <path
           d="M 129.4168,94.603509 103.97862,43.792485 100.69357,37.138944 166.99291,144.41352 129.4168,94.603509"
           clip-path="url(#p866bf232cb)"
           style="fill:none;stroke:#000000;stroke-width:0.5"
           id="path51" />
        <path
           d="m 134.02178,20.135349 40.33705,121.011141 -7.27307,3.41728 -0.0928,-0.15025 v 0 0 L 119.05925,20.135349 h 14.96253"
           clip-path="url(#p866bf232cb)"
           style="fill:none;stroke:#000000;stroke-width:0.5"
           id="path52" />
        <path
           d="M 119.05925,20.135349 166.99291,144.41352 105.28861,20.135349 h 13.77064"
           clip-path="url(#p866bf232cb)"
           style="fill:none;stroke:#000000;stroke-width:0.5"
           id="path53" />
        <path
           d="m 149.46123,20.135349 32.75056,119.205211 0.0134,0.0824 -7.34631,1.80391 -0.52003,-0.0804 L 134.0218,20.135329 h 15.43945"
           clip-path="url(#p866bf232cb)"
           style="fill:none;stroke:#000000;stroke-width:0.5"
           id="path54" />
        <path
           d="m 161.91994,149.48649 v 0 0 l 27.28166,29.93646 1.64867,3.25275 2.08965,7.93014 -31.01998,-41.11935"
           clip-path="url(#p866bf232cb)"
           style="fill:none;stroke:#000000;stroke-width:0.5"
           id="path55" />
        <path
           d="m 201.8617,221.89103 -4.28493,-14.71059 -4.63685,-16.5746 -2.08965,-7.93014 v -42.88471 l 6.56704,-0.53284 0.0134,0.0824 v 0 l 4.43102,82.55047"
           clip-path="url(#p866bf232cb)"
           style="fill:none;stroke:#000000;stroke-width:0.5"
           id="path56" />
        <path
           d="m 161.91994,149.48649 -0.0928,-0.15025 1.62034,-1.27822 20.56272,20.56272 5.19145,10.80221 -27.28166,-29.93646"
           clip-path="url(#p866bf232cb)"
           style="fill:none;stroke:#000000;stroke-width:0.5"
           id="path57" />
        <path
           d="m 192.93992,190.60584 4.63685,16.5746 -35.65683,-57.69395 31.01998,41.11935"
           clip-path="url(#p866bf232cb)"
           style="fill:none;stroke:#000000;stroke-width:0.5"
           id="path58" />
        <path
           d="m 163.44743,148.05802 2.01799,-2.21603 1.62034,-1.27822 7.27307,-3.41728 0.52003,0.0804 9.13129,27.39386 -20.56272,-20.56272"
           clip-path="url(#p866bf232cb)"
           style="fill:none;stroke:#000000;stroke-width:0.5"
           id="path59" />
        <path
           d="m 190.85027,182.6757 -1.64867,-3.25275 -5.19145,-10.80221 -9.13129,-27.39386 7.34631,-1.80391 6.56703,-0.53284 2.05807,0.90086 v 42.88471"
           clip-path="url(#p866bf232cb)"
           style="fill:none;stroke:#000000;stroke-width:0.5"
           id="path60" />
        <path
           d="m 177.97065,20.135349 10.82155,64.670868 v 54.083913 l -6.56703,0.53284 -0.0134,-0.0824 v 0 l -6.3985,-119.205221 h 2.15738"
           clip-path="url(#p866bf232cb)"
           style="fill:none;stroke:#000000;stroke-width:0.5"
           id="path61" />
        <path
           d="m 162.86745,20.135349 19.34434,119.205211 v 0 L 149.46123,20.135349 h 13.40622"
           clip-path="url(#p866bf232cb)"
           style="fill:none;stroke:#000000;stroke-width:0.5"
           id="path62" />
        <path
           d="M 175.81327,20.135349 182.21179,139.34056 162.86745,20.135349 h 12.94582"
           clip-path="url(#p866bf232cb)"
           style="fill:none;stroke:#000000;stroke-width:0.5"
           id="path63" />
        <path
           d="m 203.92277,20.135349 8.7268,114.132251 v 0 L 192.53021,20.135349 h 11.39256"
           clip-path="url(#p866bf232cb)"
           style="fill:none;stroke:#000000;stroke-width:0.5"
           id="path64" />
        <path
           d="M 180.73506,20.135349 212.64957,134.2676 206.01635,136.47867 188.7922,84.806217 177.97065,20.135349 h 2.76441"
           clip-path="url(#p866bf232cb)"
           style="fill:none;stroke:#000000;stroke-width:0.5"
           id="path65" />
        <path
           d="m 190.85027,139.79099 -2.05807,-0.90086 V 84.806217 l 17.22415,51.672453 -0.79682,0.86362 -7.80222,1.91586 -6.56704,0.53284"
           clip-path="url(#p866bf232cb)"
           style="fill:none;stroke:#000000;stroke-width:0.5"
           id="path66" />
        <path
           d="m 252.3862,278.84233 -47.16667,-141.50004 0.79682,-0.86362 6.63322,-2.21107 v 0 0 0 0 0 l 56.21462,144.57473 H 252.3862"
           clip-path="url(#p866bf232cb)"
           style="fill:none;stroke:#000000;stroke-width:0.5"
           id="path67" />
        <path
           d="m 235.75754,278.84233 -38.32686,-139.50177 -0.0134,-0.0824 7.80222,-1.91586 47.16667,141.50004 h -16.62866"
           clip-path="url(#p866bf232cb)"
           style="fill:none;stroke:#000000;stroke-width:0.5"
           id="path68" />
        <path
           d="M 192.53021,20.135349 212.64957,134.2676 v 0 0 L 180.73506,20.135349 h 11.79515"
           clip-path="url(#p866bf232cb)"
           style="fill:none;stroke:#000000;stroke-width:0.5"
           id="path69" />
        <path
           d="M 226.41572,20.135349 212.64957,134.2676 v 0 0 0 0 l 2.49546,-114.132251 h 11.27069"
           clip-path="url(#p866bf232cb)"
           style="fill:none;stroke:#000000;stroke-width:0.5"
           id="path70" />
        <path
           d="M 215.14503,20.135349 212.64957,134.2676 203.92277,20.135349 h 11.22226"
           clip-path="url(#p866bf232cb)"
           style="fill:none;stroke:#000000;stroke-width:0.5"
           id="path71" />
        <path
           d="M 326.78182,253.50233 212.64957,134.2676 v 0 0 0 0 0 0 l 114.13225,97.91841 v 21.31632"
           clip-path="url(#p866bf232cb)"
           style="fill:none;stroke:#000000;stroke-width:0.5"
           id="path72" />
        <path
           d="M 237.95741,20.135349 212.64957,134.2676 v 0 0 0 L 226.41572,20.135349 h 11.54169"
           clip-path="url(#p866bf232cb)"
           style="fill:none;stroke:#000000;stroke-width:0.5"
           id="path73" />
        <path
           d="M 250.01449,20.135349 212.64957,134.2676 237.95741,20.135349 h 12.05708"
           clip-path="url(#p866bf232cb)"
           style="fill:none;stroke:#000000;stroke-width:0.5"
           id="path74" />
        <path
           d="M 276.90088,20.135349 212.64957,134.2676 262.87503,20.135349 h 14.02585"
           clip-path="url(#p866bf232cb)"
           style="fill:none;stroke:#000000;stroke-width:0.5"
           id="path75" />
        <path
           d="M 310.56798,20.135349 212.64957,134.2676 v 0 0 0 0 0 0 L 292.5734,20.135349 h 17.99458"
           clip-path="url(#p866bf232cb)"
           style="fill:none;stroke:#000000;stroke-width:0.5"
           id="path76" />
        <path
           d="M 268.86419,278.84233 212.64957,134.2676 285.90912,278.84233 h -17.04493"
           clip-path="url(#p866bf232cb)"
           style="fill:none;stroke:#000000;stroke-width:0.5"
           id="path77" />
        <path
           d="M 262.87503,20.135349 212.64957,134.2676 v 0 0 L 250.01449,20.135349 h 12.86054"
           clip-path="url(#p866bf232cb)"
           style="fill:none;stroke:#000000;stroke-width:0.5"
           id="path78" />
        <path
           d="M 285.90912,278.84233 212.64957,134.2676 v 0 l 92.0952,144.57473 h -18.83565"
           clip-path="url(#p866bf232cb)"
           style="fill:none;stroke:#000000;stroke-width:0.5"
           id="path79" />
        <path
           d="M 304.74477,278.84233 212.64957,134.2676 v 0 0 l 113.45256,144.57473 h -21.35736"
           clip-path="url(#p866bf232cb)"
           style="fill:none;stroke:#000000;stroke-width:0.5"
           id="path80" />
        <path
           d="M 326.78182,89.889845 212.64957,134.2676 v 0 0 0 0 0 0 0 0 0 0 L 326.78182,76.433994 v 13.455851"
           clip-path="url(#p866bf232cb)"
           style="fill:none;stroke:#000000;stroke-width:0.5"
           id="path81" />
        <path
           d="M 292.5734,20.135349 212.64957,134.2676 276.90088,20.135349 h 15.67252"
           clip-path="url(#p866bf232cb)"
           style="fill:none;stroke:#000000;stroke-width:0.5"
           id="path82" />
        <path
           d="m 326.78182,278.84233 h -0.67969 L 212.64957,134.2676 326.78182,253.50233 v 25.34"
           clip-path="url(#p866bf232cb)"
           style="fill:none;stroke:#000000;stroke-width:0.5"
           id="path83" />
        <path
           d="m 326.78182,20.135349 v 4.884128 L 212.64957,134.2676 310.56798,20.135349 h 16.21384"
           clip-path="url(#p866bf232cb)"
           style="fill:none;stroke:#000000;stroke-width:0.5"
           id="path84" />
        <path
           d="M 326.78182,44.704251 212.64957,134.2676 v 0 L 326.78182,25.019477 v 19.684774"
           clip-path="url(#p866bf232cb)"
           style="fill:none;stroke:#000000;stroke-width:0.5"
           id="path85" />
        <path
           d="M 326.78182,61.564481 212.64957,134.2676 v 0 0 L 326.78182,44.704251 v 16.86023"
           clip-path="url(#p866bf232cb)"
           style="fill:none;stroke:#000000;stroke-width:0.5"
           id="path86" />
        <path
           d="M 326.78182,232.18601 212.64957,134.2676 326.78182,214.19144 v 17.99457"
           clip-path="url(#p866bf232cb)"
           style="fill:none;stroke:#000000;stroke-width:0.5"
           id="path87" />
        <path
           d="M 326.78182,76.433994 212.64957,134.2676 326.78182,61.564481 v 14.869513"
           clip-path="url(#p866bf232cb)"
           style="fill:none;stroke:#000000;stroke-width:0.5"
           id="path88" />
        <path
           d="M 326.78182,214.19144 212.64957,134.2676 v 0 l 114.13225,64.25131 v 15.67253"
           clip-path="url(#p866bf232cb)"
           style="fill:none;stroke:#000000;stroke-width:0.5"
           id="path89" />
        <path
           d="M 326.78182,198.51891 212.64957,134.2676 v 0 l 114.13225,50.22546 v 14.02585"
           clip-path="url(#p866bf232cb)"
           style="fill:none;stroke:#000000;stroke-width:0.5"
           id="path90" />
        <path
           d="M 326.78182,102.35309 212.64957,134.2676 326.78182,89.889845 v 12.463245"
           clip-path="url(#p866bf232cb)"
           style="fill:none;stroke:#000000;stroke-width:0.5"
           id="path91" />
        <path
           d="M 326.78182,184.49306 212.64957,134.2676 v 0 0 0 l 114.13225,37.36492 v 12.86054"
           clip-path="url(#p866bf232cb)"
           style="fill:none;stroke:#000000;stroke-width:0.5"
           id="path92" />
        <path
           d="M 326.78182,159.57544 212.64957,134.2676 v 0 0 l 114.13225,13.76615 v 11.54169"
           clip-path="url(#p866bf232cb)"
           style="fill:none;stroke:#000000;stroke-width:0.5"
           id="path93" />
        <path
           d="M 326.78182,171.63252 212.64957,134.2676 326.78182,159.57544 v 12.05708"
           clip-path="url(#p866bf232cb)"
           style="fill:none;stroke:#000000;stroke-width:0.5"
           id="path94" />
        <path
           d="M 326.78182,114.14824 212.64957,134.2676 v 0 0 l 114.13225,-31.91451 v 11.79515"
           clip-path="url(#p866bf232cb)"
           style="fill:none;stroke:#000000;stroke-width:0.5"
           id="path95" />
        <path
           d="M 326.78182,148.03375 212.64957,134.2676 v 0 l 114.13225,2.49546 v 11.27069"
           clip-path="url(#p866bf232cb)"
           style="fill:none;stroke:#000000;stroke-width:0.5"
           id="path96" />
        <path
           d="m 326.78182,125.54081 -114.13225,8.72679 114.13225,-20.11936 v 11.39257"
           clip-path="url(#p866bf232cb)"
           style="fill:none;stroke:#000000;stroke-width:0.5"
           id="path97" />
        <path
           d="M 326.78182,136.76306 212.64957,134.2676 v 0 0 l 114.13225,-8.72679 v 11.22225"
           clip-path="url(#p866bf232cb)"
           style="fill:none;stroke:#000000;stroke-width:0.5"
           id="path98" />
      </g>
      <g
         id="PatchCollection_2"
         transform="matrix(0.50830968,0,0,0.50830968,10.89988,9.7774336)">
        <path
           d="m 137.73324,145.59163 0.86892,-0.79186 0.93851,-0.708 1.00003,-0.61805 1.05297,-0.52281 1.09686,-0.42305 12.37861,-4.1262 2.95595,-2.95595 0.86892,-0.79186 0.93851,-0.708 1.00003,-0.61806 1.05297,-0.5228 1.09686,-0.42305 15.21888,-5.07296 1.31097,-0.36018 1.34198,-0.21777 1.35758,-0.0729 h 13.16082 l 13.26643,-4.42215 1.19861,-0.33516 1.2257,-0.21607 1.24097,-0.0949 1.24429,0.0272 1.23564,0.14904 1.21508,0.26943 1.18281,0.38723 1.13917,0.50131 1.08455,0.61055 1.01947,0.71392 0.9446,0.8104 0.86061,0.89909 0.76834,0.97911 0.66867,1.04971 0.56257,1.11019 0.45103,1.15999 0.33517,1.19861 0.21607,1.2257 0.0949,1.24097 -0.0272,1.24429 -0.14904,1.23564 -0.26943,1.21508 -0.38724,1.18282 -0.5013,1.13916 -0.61055,1.08455 -0.71392,1.01948 -0.8104,0.94459 -0.89909,0.86061 -0.97911,0.76834 -1.04971,0.66868 -1.11019,0.56256 -1.15999,0.45104 -15.21889,5.07296 -1.31096,0.36017 -1.34199,0.21778 -1.35758,0.0729 h -13.16082 l -10.42615,3.47538 -2.95595,2.95595 -0.86892,0.79186 -0.93851,0.708 -1.00003,0.61806 -1.05297,0.5228 -1.09686,0.42305 -12.37861,4.12621 -8.02891,8.02891 -0.92218,0.83582 -0.99967,0.7414 -1.06752,0.63985 -1.1251,0.53213 -1.17184,0.41929 -1.20729,0.30241 -1.23112,0.18262 -1.2431,0.0611 -1.24309,-0.0611 -1.23112,-0.18262 -1.2073,-0.30241 -1.17183,-0.41929 -1.1251,-0.53213 -1.06752,-0.63985 -0.99967,-0.7414 -0.92218,-0.83582 -0.83582,-0.92218 -0.7414,-0.99967 -0.63985,-1.06752 -0.53213,-1.1251 -0.41929,-1.17184 -0.30241,-1.20729 -0.18262,-1.23112 -0.0611,-1.2431 0.0611,-1.24309 0.18262,-1.23112 0.30241,-1.2073 0.41929,-1.17183 0.53213,-1.1251 0.63985,-1.06752 0.7414,-0.99967 0.83582,-0.92218 10.14592,-10.14593"
           clip-path="url(#p866bf232cb)"
           style="fill:none;stroke:#ff0000;stroke-width:2"
           id="path99" />
      </g>
      <g
         id="LineCollection_1"
         transform="matrix(0.50830968,0,0,0.50830968,10.89988,9.7774336)">
        <path
           d="m 212.64957,134.2676 v 0"
           clip-path="url(#p866bf232cb)"
           style="fill:none;stroke:#000000;stroke-width:0.5"
           id="path100" />
      </g>
    </g>
    <g
       id="g109"
       transform="matrix(1.9673775,0,0,1.9673775,-269.7858,-100.41887)">
      <path
         style="fill:none;stroke:#001bff;stroke-width:0.86827"
         d="m 235.40062,80.798447 1.74747,-1.596465 0.21574,-0.733509 2.3947,-1.876922 2.48099,-1.186559 1.38073,0.107866 2.56728,-1.208135 0.69036,-0.517771 0.86296,-0.949246 0.71193,-0.560923 2.99876,-1.445441 0.36675,0.04318 2.99876,-0.862949 2.78302,-0.172594 0.81981,0.302034 2.91247,-0.107871 3.38708,-0.819806 0.40991,-0.388329 2.61043,-0.841374"
         id="path102" />
      <path
         style="fill:none;stroke:#001bff;stroke-width:0.86827"
         d="m 239.63162,76.487026 c -0.0432,-0.129441 -1.22971,-3.343939 -1.22971,-3.343939"
         id="path105" />
      <path
         style="fill:none;stroke:#001bff;stroke-width:0.86827"
         d="m 242.2611,75.253975 -1.10027,-3.494962"
         id="path106" />
      <g
         id="g101"
         transform="matrix(0.42656951,0,0,0.42656951,177.27526,10.562848)"
         style="stroke-linecap:butt;stroke-linejoin:round">
        <path
           d="m 137.73324,145.59163 0.86892,-0.79186 0.93851,-0.708 1.00003,-0.61805 1.05297,-0.52281 1.09686,-0.42305 12.37861,-4.1262 2.95595,-2.95595 0.86892,-0.79186 0.93851,-0.708 1.00003,-0.61806 1.05297,-0.5228 1.09686,-0.42305 15.21888,-5.07296 1.31097,-0.36018 1.34198,-0.21777 1.35758,-0.0729 h 13.16082 l 13.26643,-4.42215 1.19861,-0.33516 1.2257,-0.21607 1.24097,-0.0949 1.24429,0.0272 1.23564,0.14904 1.21508,0.26943 1.18281,0.38723 1.13917,0.50131 1.08455,0.61055 1.01947,0.71392 0.9446,0.8104 0.86061,0.89909 0.76834,0.97911 0.66867,1.04971 0.56257,1.11019 0.45103,1.15999 0.33517,1.19861 0.21607,1.2257 0.0949,1.24097 -0.0272,1.24429 -0.14904,1.23564 -0.26943,1.21508 -0.38724,1.18282 -0.5013,1.13916 -0.61055,1.08455 -0.71392,1.01948 -0.8104,0.94459 -0.89909,0.86061 -0.97911,0.76834 -1.04971,0.66868 -1.11019,0.56256 -1.15999,0.45104 -15.21889,5.07296 -1.31096,0.36017 -1.34199,0.21778 -1.35758,0.0729 h -13.16082 l -10.42615,3.47538 -2.95595,2.95595 -0.86892,0.79186 -0.93851,0.708 -1.00003,0.61806 -1.05297,0.5228 -1.09686,0.42305 -12.37861,4.12621 -8.02891,8.02891 -0.92218,0.83582 -0.99967,0.7414 -1.06752,0.63985 -1.1251,0.53213 -1.17184,0.41929 -1.20729,0.30241 -1.23112,0.18262 -1.2431,0.0611 -1.24309,-0.0611 -1.23112,-0.18262 -1.2073,-0.30241 -1.17183,-0.41929 -1.1251,-0.53213 -1.06752,-0.63985 -0.99967,-0.7414 -0.92218,-0.83582 -0.83582,-0.92218 -0.7414,-0.99967 -0.63985,-1.06752 -0.53213,-1.1251 -0.41929,-1.17184 -0.30241,-1.20729 -0.18262,-1.23112 -0.0611,-1.2431 0.0611,-1.24309 0.18262,-1.23112 0.30241,-1.2073 0.41929,-1.17183 0.53213,-1.1251 0.63985,-1.06752 0.7414,-0.99967 0.83582,-0.92218 10.14592,-10.14593"
           clip-path="url(#p866bf232cb-4)"
           style="fill:none;stroke:#ff0000;stroke-width:2;stroke-linecap:butt;stroke-linejoin:round"
           id="path101" />
      </g>
      <path
         style="fill:none;stroke:#001bff;stroke-width:0.86827"
         d="m 246.92104,73.808527 2.26525,2.243677"
         id="path107" />
      <path
         style="fill:none;stroke:#001bff;stroke-width:0.86827"
         d="m 257.62166,69.644777 0.10787,-3.387085"
         id="path108" />
      <path
         style="fill:none;stroke:#001bff;stroke-width:0.86827"
         d="m 261.33235,70.097827 0.97082,3.063488"
         id="path109" />
      <path
         style="fill:none;stroke:#001bff;stroke-width:0.86827"
         d="m 279.43843,99.04111 1.74747,-1.596471 0.21574,-0.733505 2.3947,-1.87692 2.48099,-1.186559 1.38073,0.107861 2.56728,-1.208134 0.69036,-0.517771 0.86296,-0.949246 0.71193,-0.560923 2.99876,-1.445441 0.36675,0.04318 2.99876,-0.86295 2.78302,-0.172593 0.81981,0.302034 2.91247,-0.107872 3.38708,-0.819805 0.40991,-0.388329 2.61043,-0.841375"
         id="path110" />
      <g
         id="g111"
         transform="matrix(0.42656951,0,0,0.42656951,221.31307,28.805506)"
         style="stroke-linecap:butt;stroke-linejoin:round">
        <path
           d="m 137.73324,145.59163 0.86892,-0.79186 0.93851,-0.708 1.00003,-0.61805 1.05297,-0.52281 1.09686,-0.42305 12.37861,-4.1262 2.95595,-2.95595 0.86892,-0.79186 0.93851,-0.708 1.00003,-0.61806 1.05297,-0.5228 1.09686,-0.42305 15.21888,-5.07296 1.31097,-0.36018 1.34198,-0.21777 1.35758,-0.0729 h 13.16082 l 13.26643,-4.42215 1.19861,-0.33516 1.2257,-0.21607 1.24097,-0.0949 1.24429,0.0272 1.23564,0.14904 1.21508,0.26943 1.18281,0.38723 1.13917,0.50131 1.08455,0.61055 1.01947,0.71392 0.9446,0.8104 0.86061,0.89909 0.76834,0.97911 0.66867,1.04971 0.56257,1.11019 0.45103,1.15999 0.33517,1.19861 0.21607,1.2257 0.0949,1.24097 -0.0272,1.24429 -0.14904,1.23564 -0.26943,1.21508 -0.38724,1.18282 -0.5013,1.13916 -0.61055,1.08455 -0.71392,1.01948 -0.8104,0.94459 -0.89909,0.86061 -0.97911,0.76834 -1.04971,0.66868 -1.11019,0.56256 -1.15999,0.45104 -15.21889,5.07296 -1.31096,0.36017 -1.34199,0.21778 -1.35758,0.0729 h -13.16082 l -10.42615,3.47538 -2.95595,2.95595 -0.86892,0.79186 -0.93851,0.708 -1.00003,0.61806 -1.05297,0.5228 -1.09686,0.42305 -12.37861,4.12621 -8.02891,8.02891 -0.92218,0.83582 -0.99967,0.7414 -1.06752,0.63985 -1.1251,0.53213 -1.17184,0.41929 -1.20729,0.30241 -1.23112,0.18262 -1.2431,0.0611 -1.24309,-0.0611 -1.23112,-0.18262 -1.2073,-0.30241 -1.17183,-0.41929 -1.1251,-0.53213 -1.06752,-0.63985 -0.99967,-0.7414 -0.92218,-0.83582 -0.83582,-0.92218 -0.7414,-0.99967 -0.63985,-1.06752 -0.53213,-1.1251 -0.41929,-1.17184 -0.30241,-1.20729 -0.18262,-1.23112 -0.0611,-1.2431 0.0611,-1.24309 0.18262,-1.23112 0.30241,-1.2073 0.41929,-1.17183 0.53213,-1.1251 0.63985,-1.06752 0.7414,-0.99967 0.83582,-0.92218 10.14592,-10.14593"
           clip-path="url(#p866bf232cb-4)"
           style="fill:none;stroke:#ff0000;stroke-width:2;stroke-linecap:butt;stroke-linejoin:round"
           id="path111" />
      </g>
      <path
         style="fill:none;stroke:#001bff;stroke-width:0.86827"
         d="m 226.71916,129.584 5.31013,-5.39521 0.21574,-0.7335 2.3947,-1.87692 2.48099,-1.18656 1.38073,0.10786 2.56728,-1.20814 0.69036,-0.51776 0.86296,-0.94925 0.71193,-0.56093 2.99876,-1.44544 0.36675,0.0432 2.99876,-0.86295 2.78302,-0.17259 0.81981,0.30204 2.91247,-0.10787 3.38708,-0.81981 0.40991,-0.38833 7.89003,-3.00901"
         id="path112"
         sodipodi:nodetypes="ccccccccccccccccccc" />
      <g
         id="g113"
         transform="matrix(0.42656951,0,0,0.42656951,172.15646,55.549652)"
         style="stroke-linecap:butt;stroke-linejoin:round">
        <path
           d="m 137.73324,145.59163 0.86892,-0.79186 0.93851,-0.708 1.00003,-0.61805 1.05297,-0.52281 1.09686,-0.42305 12.37861,-4.1262 2.95595,-2.95595 0.86892,-0.79186 0.93851,-0.708 1.00003,-0.61806 1.05297,-0.5228 1.09686,-0.42305 15.21888,-5.07296 1.31097,-0.36018 1.34198,-0.21777 1.35758,-0.0729 h 13.16082 l 13.26643,-4.42215 1.19861,-0.33516 1.2257,-0.21607 1.24097,-0.0949 1.24429,0.0272 1.23564,0.14904 1.21508,0.26943 1.18281,0.38723 1.13917,0.50131 1.08455,0.61055 1.01947,0.71392 0.9446,0.8104 0.86061,0.89909 0.76834,0.97911 0.66867,1.04971 0.56257,1.11019 0.45103,1.15999 0.33517,1.19861 0.21607,1.2257 0.0949,1.24097 -0.0272,1.24429 -0.14904,1.23564 -0.26943,1.21508 -0.38724,1.18282 -0.5013,1.13916 -0.61055,1.08455 -0.71392,1.01948 -0.8104,0.94459 -0.89909,0.86061 -0.97911,0.76834 -1.04971,0.66868 -1.11019,0.56256 -1.15999,0.45104 -15.21889,5.07296 -1.31096,0.36017 -1.34199,0.21778 -1.35758,0.0729 h -13.16082 l -10.42615,3.47538 -2.95595,2.95595 -0.86892,0.79186 -0.93851,0.708 -1.00003,0.61806 -1.05297,0.5228 -1.09686,0.42305 -12.37861,4.12621 -8.02891,8.02891 -0.92218,0.83582 -0.99967,0.7414 -1.06752,0.63985 -1.1251,0.53213 -1.17184,0.41929 -1.20729,0.30241 -1.23112,0.18262 -1.2431,0.0611 -1.24309,-0.0611 -1.23112,-0.18262 -1.2073,-0.30241 -1.17183,-0.41929 -1.1251,-0.53213 -1.06752,-0.63985 -0.99967,-0.7414 -0.92218,-0.83582 -0.83582,-0.92218 -0.7414,-0.99967 -0.63985,-1.06752 -0.53213,-1.1251 -0.41929,-1.17184 -0.30241,-1.20729 -0.18262,-1.23112 -0.0611,-1.2431 0.0611,-1.24309 0.18262,-1.23112 0.30241,-1.2073 0.41929,-1.17183 0.53213,-1.1251 0.63985,-1.06752 0.7414,-0.99967 0.83582,-0.92218 10.14592,-10.14593"
           clip-path="url(#p866bf232cb-4)"
           style="fill:none;stroke:#ff0000;stroke-width:2;stroke-linecap:butt;stroke-linejoin:round"
           id="path113" />
      </g>
      <text
         xml:space="preserve"
         style="font-style:normal;font-variant:normal;font-weight:900;font-stretch:normal;font-size:4.06634px;font-family:Optima;-inkscape-font-specification:'Optima, Heavy';font-variant-ligatures:normal;font-variant-caps:normal;font-variant-numeric:normal;font-variant-east-asian:normal;fill:#000000;fill-opacity:1;stroke:none;stroke-width:0.881883;stroke-dasharray:none;stroke-opacity:1"
         x="233.26886"
         y="106.96654"
         id="text117"><tspan
           sodipodi:role="line"
           id="tspan117"
           style="fill:#000000;fill-opacity:1;stroke:none;stroke-width:0.881885"
           x="233.26886"
           y="106.96654">Extend Ends</tspan></text>
    </g>
    <text
       xml:space="preserve"
       style="font-style:normal;font-variant:normal;font-weight:900;font-stretch:normal;font-size:8px;font-family:Optima;-inkscape-font-specification:'Optima, Heavy';font-variant-ligatures:normal;font-variant-caps:normal;font-variant-numeric:normal;font-variant-east-asian:normal;fill:#000000;fill-opacity:1;stroke:none;stroke-width:1.03465;stroke-linecap:butt;stroke-linejoin:round"
       x="57.613033"
       y="17.612125"
       id="text114"><tspan
         sodipodi:role="line"
         id="tspan114"
         style="font-style:normal;font-variant:normal;font-weight:900;font-stretch:normal;font-size:8px;font-family:Optima;-inkscape-font-specification:'Optima, Heavy';font-variant-ligatures:normal;font-variant-caps:normal;font-variant-numeric:normal;font-variant-east-asian:normal;fill:#000000;fill-opacity:1;stroke:none;stroke-width:1.03465"
         x="57.613033"
         y="17.612125">Voroni Diagram</tspan></text>
    <text
       xml:space="preserve"
       style="font-style:normal;font-variant:normal;font-weight:900;font-stretch:normal;font-size:8.00002px;font-family:Optima;-inkscape-font-specification:'Optima, Heavy';font-variant-ligatures:normal;font-variant-caps:normal;font-variant-numeric:normal;font-variant-east-asian:normal;fill:#000000;fill-opacity:1;stroke:none;stroke-width:1.03465"
       x="191.01648"
       y="17.612131"
       id="text115"><tspan
         sodipodi:role="line"
         id="tspan115"
         style="stroke-width:1.03465"
         x="191.01648"
         y="17.612131">Intersecting Lines</tspan></text>
    <text
       xml:space="preserve"
       style="font-style:normal;font-variant:normal;font-weight:900;font-stretch:normal;font-size:8.00002px;font-family:Optima;-inkscape-font-specification:'Optima, Heavy';font-variant-ligatures:normal;font-variant-caps:normal;font-variant-numeric:normal;font-variant-east-asian:normal;fill:#000000;fill-opacity:1;stroke:none;stroke-width:1.03465"
       x="272.22183"
       y="55.965202"
       id="text116"><tspan
         sodipodi:role="line"
         id="tspan116"
         style="stroke-width:1.03465"
         x="272.22183"
         y="55.965202">Longest Shortest Path</tspan></text>
    <text
       xml:space="preserve"
       style="font-style:normal;font-variant:normal;font-weight:900;font-stretch:normal;font-size:8.00002px;font-family:Optima;-inkscape-font-specification:'Optima, Heavy';font-variant-ligatures:normal;font-variant-caps:normal;font-variant-numeric:normal;font-variant-east-asian:normal;fill:#000000;fill-opacity:1;stroke:none;stroke-width:1.735;stroke-dasharray:none;stroke-opacity:1"
       x="46.971542"
       y="18.420134"
       id="text118"><tspan
         sodipodi:role="line"
         id="tspan118"
         style="stroke-width:1.735"
         x="46.971542"
         y="18.420134">1</tspan></text>
    <circle
       style="fill:none;fill-opacity:1;stroke:#000000;stroke-width:1.735;stroke-dasharray:none;stroke-opacity:1"
       id="path118"
       cx="49.483391"
       cy="15.552126"
       r="6.0284328" />
    <text
       xml:space="preserve"
       style="font-style:normal;font-variant:normal;font-weight:900;font-stretch:normal;font-size:8.00002px;font-family:Optima;-inkscape-font-specification:'Optima, Heavy';font-variant-ligatures:normal;font-variant-caps:normal;font-variant-numeric:normal;font-variant-east-asian:normal;fill:#000000;fill-opacity:1;stroke:none;stroke-width:1.735;stroke-dasharray:none;stroke-opacity:1"
       x="179.59708"
       y="18.380133"
       id="text119"><tspan
         sodipodi:role="line"
         id="tspan119"
         style="stroke-width:1.735"
         x="179.59708"
         y="18.380133">2</tspan></text>
    <circle
       style="fill:none;fill-opacity:1;stroke:#000000;stroke-width:1.735;stroke-dasharray:none;stroke-opacity:1"
       id="circle119"
       cx="182.10892"
       cy="15.552126"
       r="6.0284328" />
    <text
       xml:space="preserve"
       style="font-style:normal;font-variant:normal;font-weight:900;font-stretch:normal;font-size:8.00002px;font-family:Optima;-inkscape-font-specification:'Optima, Heavy';font-variant-ligatures:normal;font-variant-caps:normal;font-variant-numeric:normal;font-variant-east-asian:normal;fill:#000000;fill-opacity:1;stroke:none;stroke-width:1.735;stroke-dasharray:none;stroke-opacity:1"
       x="261.06622"
       y="56.693203"
       id="text120"><tspan
         sodipodi:role="line"
         id="tspan120"
         style="stroke-width:1.735"
         x="261.06622"
         y="56.693203">3</tspan></text>
    <circle
       style="fill:none;fill-opacity:1;stroke:#000000;stroke-width:1.735;stroke-dasharray:none;stroke-opacity:1"
       id="circle120"
       cx="263.57806"
       cy="53.905197"
       r="6.0284328" />
    <text
       xml:space="preserve"
       style="font-style:normal;font-variant:normal;font-weight:900;font-stretch:normal;font-size:8.00002px;font-family:Optima;-inkscape-font-specification:'Optima, Heavy';font-variant-ligatures:normal;font-variant-caps:normal;font-variant-numeric:normal;font-variant-east-asian:normal;fill:#000000;fill-opacity:1;stroke:none;stroke-width:1.735;stroke-dasharray:none;stroke-opacity:1"
       x="177.08524"
       y="109.79269"
       id="text121"><tspan
         sodipodi:role="line"
         id="tspan121"
         style="stroke-width:1.735"
         x="177.08524"
         y="109.79269">4</tspan></text>
    <circle
       style="fill:none;fill-opacity:1;stroke:#000000;stroke-width:1.735;stroke-dasharray:none;stroke-opacity:1"
       id="circle121"
       cx="179.59708"
       cy="107.00468"
       r="6.0284328" />
  </g>
  <defs
     id="defs100">
    <clipPath
       id="p866bf232cb">
      <rect
         x="7.1999998"
         y="7.1999998"
         width="334.79999"
         height="284.57767"
         id="rect100" />
    </clipPath>
  </defs>
</svg>
